<!--?xml version="1.0" encoding="utf-8"?-->
<!-- Generator: Adobe Illustrator 18.0.0, SVG Export Plug-In . SVG Version: 6.00 Build 0)  -->

<svg version="1.1" id="_x31_0" xmlns="http://www.w3.org/2000/svg" xmlns:xlink="http://www.w3.org/1999/xlink" x="0px" y="0px" viewBox="0 0 512 512" style="width: 256px; height: 256px; opacity: 1;" xml:space="preserve">
<style type="text/css">
	.st0{fill:#374149;}
</style>
<g>
	<path class="st0" d="M208.797,89.715l6.547,52.699h225.343l-6.285,50.473H221.59l6.524,52.703h199.789l-6.242,50.469
		l-251.957,0.023l-37.324-264.89c-1.562-11.098-11.062-19.348-22.266-19.348H0V31.23c0,18.398,14.918,33.317,33.317,33.317h50.538
		l35.211,249.914c2.774,19.688,19.617,34.325,39.5,34.321l286.11-0.016c20.133-0.004,37.109-15.007,39.582-34.984L512,89.715
		H208.797z" style="fill: rgb(90, 70, 32);"></path>
	<path class="st0" d="M198.035,383.98c-32.078,0-58.086,26.004-58.086,58.086c0,32.082,26.007,58.09,58.086,58.09
		c32.082,0,58.09-26.008,58.09-58.09C256.125,409.984,230.117,383.98,198.035,383.98z" style="fill: rgb(90, 70, 32);"></path>
	<path class="st0" d="M412.91,383.98c-32.082,0-58.09,26.004-58.09,58.086c0,32.082,26.008,58.09,58.09,58.09
		c32.078,0,58.086-26.008,58.086-58.09C470.996,409.984,444.988,383.98,412.91,383.98z" style="fill: rgb(90, 70, 32);"></path>
</g>
</svg>
